  0
SECTION
  2
HEADER
  9
$ACADVER
  1
AC1014
  9
$ACADMAINTVER
 70
     0
  9
$DWGCODEPAGE
  3
ANSI_1252
  9
$INSBASE
 10
0.0
 20
0.0
 30
0.0
  9
$EXTMIN
 10
-1.246043
 20
-1.060307
 30
-0.001526
  9
$EXTMAX
 10
7.60479
 20
4.003771
 30
0.0
  9
$LIMMIN
 10
0.0
 20
0.0
  9
$LIMMAX
 10
12.0
 20
9.0
  9
$ORTHOMODE
 70
     0
  9
$REGENMODE
 70
     1
  9
$FILLMODE
 70
     1
  9
$QTEXTMODE
 70
     0
  9
$MIRRTEXT
 70
     1
  9
$DRAGMODE
 70
     2
  9
$LTSCALE
 40
1.0
  9
$OSMODE
 70
     0
  9
$ATTMODE
 70
     1
  9
$TEXTSIZE
 40
0.075
  9
$TRACEWID
 40
0.05
  9
$TEXTSTYLE
  7
STANDARD
  9
$CLAYER
  8
DIMS
  9
$CELTYPE
  6
BYLAYER
  9
$CECOLOR
 62
   256
  9
$CELTSCALE
 40
1.0
  9
$DELOBJ
 70
     1
  9
$DISPSILH
 70
     0
  9
$DIMSCALE
 40
1.0
  9
$DIMASZ
 40
0.1
  9
$DIMEXO
 40
0.1
  9
$DIMDLI
 40
0.38
  9
$DIMRND
 40
0.0
  9
$DIMDLE
 40
0.0
  9
$DIMEXE
 40
0.06
  9
$DIMTP
 40
0.0
  9
$DIMTM
 40
0.0
  9
$DIMTXT
 40
0.18
  9
$DIMCEN
 40
0.09
  9
$DIMTSZ
 40
0.0
  9
$DIMTOL
 70
     0
  9
$DIMLIM
 70
     0
  9
$DIMTIH
 70
     1
  9
$DIMTOH
 70
     1
  9
$DIMSE1
 70
     0
  9
$DIMSE2
 70
     0
  9
$DIMTAD
 70
     0
  9
$DIMZIN
 70
     0
  9
$DIMBLK
  1

  9
$DIMASO
 70
     1
  9
$DIMSHO
 70
     1
  9
$DIMPOST
  1

  9
$DIMAPOST
  1

  9
$DIMALT
 70
     0
  9
$DIMALTD
 70
     2
  9
$DIMALTF
 40
25.4
  9
$DIMLFAC
 40
1.0
  9
$DIMTOFL
 70
     0
  9
$DIMTVP
 40
0.0
  9
$DIMTIX
 70
     0
  9
$DIMSOXD
 70
     0
  9
$DIMSAH
 70
     0
  9
$DIMBLK1
  1

  9
$DIMBLK2
  1

  9
$DIMSTYLE
  2
DEF_STANDARD
  9
$DIMCLRD
 70
     0
  9
$DIMCLRE
 70
     0
  9
$DIMCLRT
 70
     0
  9
$DIMTFAC
 40
1.0
  9
$DIMGAP
 40
0.0
  9
$DIMJUST
 70
     0
  9
$DIMSD1
 70
     0
  9
$DIMSD2
 70
     0
  9
$DIMTOLJ
 70
     1
  9
$DIMTZIN
 70
     0
  9
$DIMALTZ
 70
     0
  9
$DIMALTTZ
 70
     0
  9
$DIMFIT
 70
     5
  9
$DIMUPT
 70
     0
  9
$DIMUNIT
 70
     2
  9
$DIMDEC
 70
     3
  9
$DIMTDEC
 70
     4
  9
$DIMALTU
 70
     2
  9
$DIMALTTD
 70
     2
  9
$DIMTXSTY
  7
STANDARD
  9
$DIMAUNIT
 70
     0
  9
$LUNITS
 70
     2
  9
$LUPREC
 70
     4
  9
$SKETCHINC
 40
0.1
  9
$FILLETRAD
 40
0.5
  9
$AUNITS
 70
     0
  9
$AUPREC
 70
     0
  9
$MENU
  1
.
  9
$ELEVATION
 40
0.0
  9
$PELEVATION
 40
0.0
  9
$THICKNESS
 40
0.0
  9
$LIMCHECK
 70
     0
  9
$BLIPMODE
 70
     0
  9
$CHAMFERA
 40
0.5
  9
$CHAMFERB
 40
0.5
  9
$CHAMFERC
 40
1.0
  9
$CHAMFERD
 40
0.0
  9
$SKPOLY
 70
     0
  9
$TDCREATE
 40
2456052.268303287
  9
$TDUPDATE
 40
2456552.554606620
  9
$TDINDWG
 40
0.1822507639
  9
$TDUSRTIMER
 40
0.1822507639
  9
$USRTIMER
 70
     1
  9
$ANGBASE
 50
0.0
  9
$ANGDIR
 70
     0
  9
$PDMODE
 70
     0
  9
$PDSIZE
 40
0.0
  9
$PLINEWID
 40
0.0
  9
$COORDS
 70
     0
  9
$SPLFRAME
 70
     0
  9
$SPLINETYPE
 70
     6
  9
$SPLINESEGS
 70
     8
  9
$ATTDIA
 70
     0
  9
$ATTREQ
 70
     0
  9
$HANDLING
 70
     1
  9
$HANDSEED
  5
17A
  9
$SURFTAB1
 70
     6
  9
$SURFTAB2
 70
     6
  9
$SURFTYPE
 70
     6
  9
$SURFU
 70
     6
  9
$SURFV
 70
     6
  9
$UCSNAME
  2

  9
$UCSORG
 10
0.0
 20
0.0
 30
0.0
  9
$UCSXDIR
 10
1.0
 20
0.0
 30
0.0
  9
$UCSYDIR
 10
0.0
 20
1.0
 30
0.0
  9
$PUCSNAME
  2

  9
$PUCSORG
 10
0.0
 20
0.0
 30
0.0
  9
$PUCSXDIR
 10
1.0
 20
0.0
 30
0.0
  9
$PUCSYDIR
 10
0.0
 20
1.0
 30
0.0
  9
$USERI1
 70
     0
  9
$USERI2
 70
     0
  9
$USERI3
 70
     0
  9
$USERI4
 70
     0
  9
$USERI5
 70
     0
  9
$USERR1
 40
0.0
  9
$USERR2
 40
0.0
  9
$USERR3
 40
0.0
  9
$USERR4
 40
0.0
  9
$USERR5
 40
0.0
  9
$WORLDVIEW
 70
     1
  9
$SHADEDGE
 70
     3
  9
$SHADEDIF
 70
    70
  9
$TILEMODE
 70
     1
  9
$MAXACTVP
 70
    48
  9
$PINSBASE
 10
0.0
 20
0.0
 30
0.0
  9
$PLIMCHECK
 70
     0
  9
$PEXTMIN
 10
1.000000E+20
 20
1.000000E+20
 30
1.000000E+20
  9
$PEXTMAX
 10
-1.000000E+20
 20
-1.000000E+20
 30
-1.000000E+20
  9
$PLIMMIN
 10
0.0
 20
0.0
  9
$PLIMMAX
 10
12.0
 20
9.0
  9
$UNITMODE
 70
     0
  9
$VISRETAIN
 70
     1
  9
$PLINEGEN
 70
     0
  9
$PSLTSCALE
 70
     1
  9
$TREEDEPTH
 70
  3020
  9
$PICKSTYLE
 70
     0
  9
$CMLSTYLE
  2
STANDARD
  9
$CMLJUST
 70
     0
  9
$CMLSCALE
 40
1.0
  9
$PROXYGRAPHICS
 70
     1
  9
$MEASUREMENT
 70
     0
  0
ENDSEC
  0
SECTION
  2
CLASSES
  0
CLASS
  1
LWPOLYLINE
  2
AcDbPolyline
  3
"AutoCAD"
 90
        0
280
     0
281
     1
  0
CLASS
  1
IMAGE
  2
AcDbRasterImage
  3
ISM
 90
      127
280
     0
281
     1
  0
CLASS
  1
OLE2FRAME
  2
AcDbOle2Frame
  3
""
 90
        0
280
     0
281
     1
  0
CLASS
  1
HATCH
  2
AcDbHatch
  3
"ACAD_SEDONA"
 90
        0
280
     0
281
     1
  0
CLASS
  1
DICTIONARYVAR
  2
AcDbDictionaryVar
  3
"AutoCAD"
 90
        0
280
     0
281
     0
  0
CLASS
  1
RASTERVARIABLES
  2
AcDbRasterVariables
  3
ISM
 90
        0
280
     0
281
     0
  0
CLASS
  1
IMAGEDEF
  2
AcDbRasterImageDef
  3
ISM
 90
        0
280
     0
281
     0
  0
CLASS
  1
IMAGEDEF_REACTOR
  2
AcDbRasterImageDefReactor
  3
ISM
 90
        1
280
     0
281
     0
  0
CLASS
  1
IDBUFFER
  2
AcDbIdBuffer
  3
"Acad"
 90
        0
280
     0
281
     0
  0
CLASS
  1
SPATIAL_FILTER
  2
AcDbSpatialFilter
  3
"Acad"
 90
        0
280
     0
281
     0
  0
CLASS
  1
XRECORD
  2
AcDbXrecord
  3
"<Built In>"
 90
        0
280
     0
281
     0
  0
CLASS
  1
SORTENTSTABLE
  2
AcDbSortentsTable
  3
"AutoCAD"
 90
        0
280
     0
281
     0
  0
CLASS
  1
LAYER_INDEX
  2
AcDbLayerIndex
  3
"Acad"
 90
        0
280
     0
281
     0
  0
CLASS
  1
SPATIAL_INDEX
  2
AcDbSpatialIndex
  3
"Acad"
 90
        0
280
     0
281
     0
  0
CLASS
  1
OBJECT_PTR
  2
CAseDLPNTableRecord
  3
"ASE-LPNTableRecord"
 90
        1
280
     1
281
     0
  0
CLASS
  1
LAYOUT
  2
AcDbLayout
  3
"AutoCAD 2000"
 90
        1
280
     1
281
     0
  0
CLASS
  1
PLOTSETTINGS
  2
AcDbPlotSettings
  3
"AutoCAD 2000"
 90
        1
280
     1
281
     0
  0
CLASS
  1
ACDBDICTIONARYWDFLT
  2
AcDbDictionaryWithDefault
  3
"AutoCAD 2000"
 90
        1
280
     1
281
     0
  0
CLASS
  1
ACDBPLACEHOLDER
  2
AcDbPlaceHolder
  3
"AutoCAD 2000"
 90
        1
280
     1
281
     0
  0
CLASS
  1
VBA_PROJECT
  2
AcDbVbaProject
  3
"acadvba"
 90
        1
280
     1
281
     0
  0
CLASS
  1
WIPEOUT
  2
AcDbWipeout
  3
WipeOut|AutoCAD Express Tool|expresstools@autodesk.com
 90
      127
280
     1
281
     1
  0
CLASS
  1
WIPEOUTVARIABLES
  2
AcDbWipeoutVariables
  3
WipeOut|AutoCAD Express Tool|expresstools@autodesk.com
 90
        0
280
     1
281
     0
  0
CLASS
  1
RTEXT
  2
RText
  3
RText|AutoCAD Express Tool|expresstools@autodesk.com
 90
        0
280
     1
281
     1
  0
CLASS
  1
ARCALIGNEDTEXT
  2
AcDbArcAlignedText
  3
ATEXT|AutoCAD Express Tool|expresstools@autodesk.com
 90
        0
280
     1
281
     1
  0
CLASS
  1
DIMASSOC
  2
AcDbDimAssoc
  3
AcDbDimAssoc|Product Desc:     AcDim ARX App For Dimension|Company:          Autodesk, Inc.|WEB Address:      www.autodesk.com
 90
        1
280
     1
281
     0
  0
ENDSEC
  0
SECTION
  2
TABLES
  0
TABLE
  2
VPORT
  5
13
100
AcDbSymbolTable
 70
     2
  0
VPORT
  5
179
100
AcDbSymbolTableRecord
100
AcDbViewportTableRecord
  2
*ACTIVE
 70
     0
 10
0.0
 20
0.0
 11
1.0
 21
1.0
 12
3.179373
 22
1.471732
 13
0.0
 23
0.0
 14
0.2
 24
0.2
 15
0.5
 25
0.5
 16
0.0
 26
0.0
 36
1.0
 17
0.0
 27
0.0
 37
0.0
 40
10.25117
 41
2.369168
 42
50.0
 43
0.0
 44
0.0
 50
0.0
 51
0.0
 71
     0
 72
   100
 73
     1
 74
     1
 75
     0
 76
     0
 77
     0
 78
     0
  0
ENDTAB
  0
TABLE
  2
LTYPE
  5
E
100
AcDbSymbolTable
 70
     1
  0
LTYPE
  5
F
100
AcDbSymbolTableRecord
100
AcDbLinetypeTableRecord
  2
BYBLOCK
 70
     0
  3

 72
    65
 73
     0
 40
0.0
  0
LTYPE
  5
10
100
AcDbSymbolTableRecord
100
AcDbLinetypeTableRecord
  2
BYLAYER
 70
     0
  3

 72
    65
 73
     0
 40
0.0
  0
LTYPE
  5
5
100
AcDbSymbolTableRecord
100
AcDbLinetypeTableRecord
  2
CONTINUOUS
 70
     0
  3
Solid line
 72
    65
 73
     0
 40
0.0
  0
ENDTAB
  0
TABLE
  2
LAYER
  5
A
100
AcDbSymbolTable
 70
     3
  0
LAYER
  5
4
100
AcDbSymbolTableRecord
100
AcDbLayerTableRecord
  2
0
 70
     0
 62
     7
  6
CONTINUOUS
  0
LAYER
  5
1B
100
AcDbSymbolTableRecord
100
AcDbLayerTableRecord
  2
DIMS
 70
     0
 62
    10
  6
CONTINUOUS
  0
LAYER
  5
24
100
AcDbSymbolTableRecord
100
AcDbLayerTableRecord
  2
DEFPOINTS
 70
     0
 62
     7
  6
CONTINUOUS
  0
ENDTAB
  0
TABLE
  2
STYLE
  5
B
100
AcDbSymbolTable
 70
     1
  0
STYLE
  5
C
100
AcDbSymbolTableRecord
100
AcDbTextStyleTableRecord
  2
STANDARD
 70
     0
 40
0.075
 41
1.0
 50
0.0
 71
     0
 42
0.075
  3
ARIAL.TTF
  4

1001
ACAD
1000
Arial
1071
       34
  0
ENDTAB
  0
TABLE
  2
VIEW
  5
11
100
AcDbSymbolTable
 70
     0
  0
ENDTAB
  0
TABLE
  2
UCS
  5
12
100
AcDbSymbolTable
 70
     0
  0
ENDTAB
  0
TABLE
  2
APPID
  5
15
100
AcDbSymbolTable
 70
     1
  0
APPID
  5
D
100
AcDbSymbolTableRecord
100
AcDbRegAppTableRecord
  2
ACAD
 70
     0
  0
ENDTAB
  0
TABLE
  2
DIMSTYLE
  5
16
100
AcDbSymbolTable
 70
     2
  0
DIMSTYLE
105
21
102
{ACAD_REACTORS
330
BD
330
96
330
76
330
89
330
69
330
11B
330
100
330
F3
330
5C
330
4F
330
20
330
CA
330
42
330
30
330
10E
102
}
100
AcDbSymbolTableRecord
100
AcDbDimStyleTableRecord
  2
STANDARD
 70
     0
  3

  4

  5

  6

  7

 40
1.0
 41
0.18
 42
0.0625
 43
0.38
 44
0.18
 45
0.0
 46
0.0
 47
0.0
 48
0.0
140
0.18
141
0.09
142
0.0
143
25.4
144
1.0
145
0.0
146
1.0
147
0.09
 71
     0
 72
     0
 73
     1
 74
     1
 75
     0
 76
     0
 77
     0
 78
     0
170
     0
171
     2
172
     0
173
     0
174
     0
175
     0
176
     0
177
     0
178
     0
270
     2
271
     4
272
     4
273
     2
274
     2
340
C
275
     0
280
     0
281
     0
282
     0
283
     1
284
     0
285
     0
286
     0
287
     3
288
     0
  0
DIMSTYLE
105
1D
102
{ACAD_REACTORS
330
CA
330
96
330
76
330
89
330
69
330
11B
330
100
330
F3
330
5C
330
4F
330
42
330
10E
330
B0
330
A4
102
}
100
AcDbSymbolTableRecord
100
AcDbDimStyleTableRecord
  2
DEF_STANDARD
 70
     0
  3

  4

  5

  6

  7

 40
1.0
 41
0.1
 42
0.1
 43
0.38
 44
0.06
 45
0.0
 46
0.0
 47
0.0
 48
0.0
140
0.18
141
0.09
142
0.0
143
25.4
144
1.0
145
0.0
146
1.0
147
0.0
 71
     0
 72
     0
 73
     1
 74
     1
 75
     0
 76
     0
 77
     0
 78
     0
170
     0
171
     2
172
     0
173
     0
174
     0
175
     0
176
     0
177
     0
178
     0
270
     2
271
     3
272
     4
273
     2
274
     2
340
C
275
     0
280
     0
281
     0
282
     0
283
     1
284
     0
285
     0
286
     0
287
     5
288
     0
  0
ENDTAB
  0
TABLE
  2
BLOCK_RECORD
  5
1
100
AcDbSymbolTable
 70
    18
  0
BLOCK_RECORD
  5
2
100
AcDbSymbolTableRecord
100
AcDbBlockTableRecord
  2
*MODEL_SPACE
  0
BLOCK_RECORD
  5
7
100
AcDbSymbolTableRecord
100
AcDbBlockTableRecord
  2
*PAPER_SPACE
  0
BLOCK_RECORD
  5
3D
100
AcDbSymbolTableRecord
100
AcDbBlockTableRecord
  2
A$C3E03409D
  0
BLOCK_RECORD
  5
CB
100
AcDbSymbolTableRecord
100
AcDbBlockTableRecord
  2
*D1
  0
BLOCK_RECORD
  5
BE
100
AcDbSymbolTableRecord
100
AcDbBlockTableRecord
  2
*D2
  0
BLOCK_RECORD
  5
97
100
AcDbSymbolTableRecord
100
AcDbBlockTableRecord
  2
*D3
  0
BLOCK_RECORD
  5
77
100
AcDbSymbolTableRecord
100
AcDbBlockTableRecord
  2
*D4
  0
BLOCK_RECORD
  5
8A
100
AcDbSymbolTableRecord
100
AcDbBlockTableRecord
  2
*D5
  0
BLOCK_RECORD
  5
6A
100
AcDbSymbolTableRecord
100
AcDbBlockTableRecord
  2
*D6
  0
BLOCK_RECORD
  5
11C
100
AcDbSymbolTableRecord
100
AcDbBlockTableRecord
  2
*D7
  0
BLOCK_RECORD
  5
101
100
AcDbSymbolTableRecord
100
AcDbBlockTableRecord
  2
*D8
  0
BLOCK_RECORD
  5
F4
100
AcDbSymbolTableRecord
100
AcDbBlockTableRecord
  2
*D9
  0
BLOCK_RECORD
  5
5D
100
AcDbSymbolTableRecord
100
AcDbBlockTableRecord
  2
*D10
  0
BLOCK_RECORD
  5
50
100
AcDbSymbolTableRecord
100
AcDbBlockTableRecord
  2
*D11
  0
BLOCK_RECORD
  5
22
100
AcDbSymbolTableRecord
100
AcDbBlockTableRecord
  2
*D12
  0
BLOCK_RECORD
  5
43
100
AcDbSymbolTableRecord
100
AcDbBlockTableRecord
  2
*D13
  0
BLOCK_RECORD
  5
31
100
AcDbSymbolTableRecord
100
AcDbBlockTableRecord
  2
*D14
  0
BLOCK_RECORD
  5
10F
100
AcDbSymbolTableRecord
100
AcDbBlockTableRecord
  2
*D15
  0
BLOCK_RECORD
  5
B1
100
AcDbSymbolTableRecord
100
AcDbBlockTableRecord
  2
*D16
  0
BLOCK_RECORD
  5
A5
100
AcDbSymbolTableRecord
100
AcDbBlockTableRecord
  2
*D17
  0
ENDTAB
  0
ENDSEC
  0
SECTION
  2
BLOCKS
  0
BLOCK
  5
3
100
AcDbEntity
  8
0
100
AcDbBlockBegin
  2
*MODEL_SPACE
 70
     0
 10
0.0
 20
0.0
 30
0.0
  3
*MODEL_SPACE
  1

  0
ENDBLK
  5
6
100
AcDbEntity
  8
0
100
AcDbBlockEnd
  0
BLOCK
  5
8
100
AcDbEntity
 67
     1
  8
0
100
AcDbBlockBegin
  2
*PAPER_SPACE
 70
     0
 10
0.0
 20
0.0
 30
0.0
  3
*PAPER_SPACE
  1

  0
ENDBLK
  5
9
100
AcDbEntity
 67
     1
  8
0
100
AcDbBlockEnd
  0
BLOCK
  5
3F
100
AcDbEntity
  8
0
100
AcDbBlockBegin
  2
A$C3E03409D
 70
     0
 10
0.0
 20
0.0
 30
0.0
  3
A$C3E03409D
  1

  0
LWPOLYLINE
  5
3E
100
AcDbEntity
  8
DIMS
100
AcDbPolyline
 90
        3
 70
     1
 43
0.0
 10
0.173205
 20
0.3
 10
0.0
 20
0.0
 10
0.34641
 20
0.0
  0
ENDBLK
  5
40
100
AcDbEntity
  8
0
100
AcDbBlockEnd
  0
BLOCK
  5
D5
100
AcDbEntity
  8
0
100
AcDbBlockBegin
  2
*D1
 70
     1
 10
0.0
 20
0.0
 30
0.0
  3
*D1
  1

  0
POINT
  5
CC
100
AcDbEntity
  8
DEFPOINTS
  6
BYBLOCK
 62
     0
100
AcDbPoint
 10
0.0
 20
0.0
 30
0.0
  0
POINT
  5
CD
100
AcDbEntity
  8
DEFPOINTS
  6
BYBLOCK
 62
     0
100
AcDbPoint
 10
0.9
 20
0.5
 30
0.0
  0
LINE
  5
CE
100
AcDbEntity
  8
0
  6
BYBLOCK
 62
     0
100
AcDbLine
 10
0.0
 20
-0.1
 30
0.0
 11
0.0
 21
-0.46
 31
0.0
  0
LINE
  5
CF
100
AcDbEntity
  8
0
  6
BYBLOCK
 62
     0
100
AcDbLine
 10
0.9
 20
0.4
 30
0.0
 11
0.9
 21
-0.46
 31
0.0
  0
LINE
  5
D0
100
AcDbEntity
  8
0
  6
BYBLOCK
 62
     0
100
AcDbLine
 10
0.0
 20
-0.4
 30
0.0
 11
0.142424
 21
-0.4
 31
0.0
  0
SOLID
  5
D1
100
AcDbEntity
  8
0
  6
BYBLOCK
 62
     0
100
AcDbTrace
 10
0.0
 20
-0.4
 30
0.0
 11
0.1
 21
-0.416667
 31
0.0
 12
0.1
 22
-0.383333
 32
0.0
 13
0.1
 23
-0.383333
 33
0.0
  0
LINE
  5
D2
100
AcDbEntity
  8
0
  6
BYBLOCK
 62
     0
100
AcDbLine
 10
0.9
 20
-0.4
 30
0.0
 11
0.739044
 21
-0.4
 31
0.0
  0
SOLID
  5
D3
100
AcDbEntity
  8
0
  6
BYBLOCK
 62
     0
100
AcDbTrace
 10
0.9
 20
-0.4
 30
0.0
 11
0.8
 21
-0.416667
 31
0.0
 12
0.8
 22
-0.383333
 32
0.0
 13
0.8
 23
-0.383333
 33
0.0
  0
MTEXT
  5
D4
100
AcDbEntity
  8
0
  6
BYBLOCK
 62
     0
100
AcDbMText
 10
0.440734
 20
-0.4
 30
0.0
 40
0.075
 41
0.0
 71
     5
 72
     1
  1
\A1;0.900
  0
ENDBLK
  5
D6
100
AcDbEntity
  8
DIMS
100
AcDbBlockEnd
  0
BLOCK
  5
C8
100
AcDbEntity
  8
0
100
AcDbBlockBegin
  2
*D2
 70
     1
 10
0.0
 20
0.0
 30
0.0
  3
*D2
  1

  0
POINT
  5
BF
100
AcDbEntity
  8
DEFPOINTS
  6
BYBLOCK
 62
     0
100
AcDbPoint
 10
0.0
 20
0.0
 30
0.0
  0
POINT
  5
C0
100
AcDbEntity
  8
DEFPOINTS
  6
BYBLOCK
 62
     0
100
AcDbPoint
 10
0.9
 20
0.5
 30
0.0
  0
LINE
  5
C1
100
AcDbEntity
  8
0
  6
BYBLOCK
 62
     0
100
AcDbLine
 10
-0.1
 20
0.0
 30
0.0
 11
-0.349762
 21
0.0
 31
0.0
  0
LINE
  5
C2
100
AcDbEntity
  8
0
  6
BYBLOCK
 62
     0
100
AcDbLine
 10
0.8
 20
0.5
 30
0.0
 11
-0.349762
 21
0.5
 31
0.0
  0
LINE
  5
C3
100
AcDbEntity
  8
0
  6
BYBLOCK
 62
     0
100
AcDbLine
 10
-0.287262
 20
0.1
 30
0.0
 11
-0.287262
 21
0.159049
 31
0.0
  0
SOLID
  5
C4
100
AcDbEntity
  8
0
  6
BYBLOCK
 62
     0
100
AcDbTrace
 10
-0.287262
 20
0.0
 30
0.0
 11
-0.270595
 21
0.1
 31
0.0
 12
-0.303928
 22
0.1
 32
0.0
 13
-0.303928
 23
0.1
 33
0.0
  0
LINE
  5
C5
100
AcDbEntity
  8
0
  6
BYBLOCK
 62
     0
100
AcDbLine
 10
-0.287262
 20
0.4
 30
0.0
 11
-0.287262
 21
0.339773
 31
0.0
  0
SOLID
  5
C6
100
AcDbEntity
  8
0
  6
BYBLOCK
 62
     0
100
AcDbTrace
 10
-0.287262
 20
0.5
 30
0.0
 11
-0.270595
 21
0.4
 31
0.0
 12
-0.303928
 22
0.4
 32
0.0
 13
-0.303928
 23
0.4
 33
0.0
  0
MTEXT
  5
C7
100
AcDbEntity
  8
0
  6
BYBLOCK
 62
     0
100
AcDbMText
 10
-0.287262
 20
0.249411
 30
0.0
 40
0.075
 41
0.0
 71
     5
 72
     1
  1
\A1;0.500
  0
ENDBLK
  5
C9
100
AcDbEntity
  8
DIMS
100
AcDbBlockEnd
  0
BLOCK
  5
A1
100
AcDbEntity
  8
0
100
AcDbBlockBegin
  2
*D3
 70
     1
 10
0.0
 20
0.0
 30
0.0
  3
*D3
  1

  0
POINT
  5
98
100
AcDbEntity
  8
DEFPOINTS
  6
BYBLOCK
 62
     0
100
AcDbPoint
 10
0.0
 20
0.0
 30
0.0
  0
POINT
  5
99
100
AcDbEntity
  8
DEFPOINTS
  6
BYBLOCK
 62
     0
100
AcDbPoint
 10
0.9
 20
2.1
 30
0.0
  0
LINE
  5
9A
100
AcDbEntity
  8
0
  6
BYBLOCK
 62
     0
100
AcDbLine
 10
-0.1
 20
0.0
 30
0.0
 11
-0.913373
 21
0.0
 31
0.0
  0
LINE
  5
9B
100
AcDbEntity
  8
0
  6
BYBLOCK
 62
     0
100
AcDbLine
 10
0.8
 20
2.1
 30
0.0
 11
-0.913373
 21
2.1
 31
0.0
  0
LINE
  5
9C
100
AcDbEntity
  8
0
  6
BYBLOCK
 62
     0
100
AcDbLine
 10
-0.853373
 20
0.0
 30
0.0
 11
-0.853373
 21
0.937979
 31
0.0
  0
SOLID
  5
9D
100
AcDbEntity
  8
0
  6
BYBLOCK
 62
     0
100
AcDbTrace
 10
-0.853373
 20
0.0
 30
0.0
 11
-0.836707
 21
0.1
 31
0.0
 12
-0.87004
 22
0.1
 32
0.0
 13
-0.87004
 23
0.1
 33
0.0
  0
LINE
  5
9E
100
AcDbEntity
  8
0
  6
BYBLOCK
 62
     0
100
AcDbLine
 10
-0.853373
 20
2.1
 30
0.0
 11
-0.853373
 21
1.118703
 31
0.0
  0
SOLID
  5
9F
100
AcDbEntity
  8
0
  6
BYBLOCK
 62
     0
100
AcDbTrace
 10
-0.853373
 20
2.1
 30
0.0
 11
-0.836707
 21
2.0
 31
0.0
 12
-0.87004
 22
2.0
 32
0.0
 13
-0.87004
 23
2.0
 33
0.0
  0
MTEXT
  5
A0
100
AcDbEntity
  8
0
  6
BYBLOCK
 62
     0
100
AcDbMText
 10
-0.853373
 20
1.028341
 30
0.0
 40
0.075
 41
0.0
 71
     5
 72
     1
  1
\A1;2.100
  0
ENDBLK
  5
A2
100
AcDbEntity
  8
DIMS
100
AcDbBlockEnd
  0
BLOCK
  5
81
100
AcDbEntity
  8
0
100
AcDbBlockBegin
  2
*D4
 70
     1
 10
0.0
 20
0.0
 30
0.0
  3
*D4
  1

  0
POINT
  5
78
100
AcDbEntity
  8
DEFPOINTS
  6
BYBLOCK
 62
     0
100
AcDbPoint
 10
0.0
 20
0.0
 30
0.0
  0
POINT
  5
79
100
AcDbEntity
  8
DEFPOINTS
  6
BYBLOCK
 62
     0
100
AcDbPoint
 10
3.6
 20
0.0
 30
0.0
  0
LINE
  5
7A
100
AcDbEntity
  8
0
  6
BYBLOCK
 62
     0
100
AcDbLine
 10
0.0
 20
-0.1
 30
0.0
 11
0.0
 21
-1.06
 31
0.0
  0
LINE
  5
7B
100
AcDbEntity
  8
0
  6
BYBLOCK
 62
     0
100
AcDbLine
 10
3.6
 20
-0.1
 30
0.0
 11
3.6
 21
-1.06
 31
0.0
  0
LINE
  5
7C
100
AcDbEntity
  8
0
  6
BYBLOCK
 62
     0
100
AcDbLine
 10
0.0
 20
-1.0
 30
0.0
 11
1.508394
 21
-1.0
 31
0.0
  0
SOLID
  5
7D
100
AcDbEntity
  8
0
  6
BYBLOCK
 62
     0
100
AcDbTrace
 10
0.0
 20
-1.0
 30
0.0
 11
0.1
 21
-1.016667
 31
0.0
 12
0.1
 22
-0.983333
 32
0.0
 13
0.1
 23
-0.983333
 33
0.0
  0
LINE
  5
7E
100
AcDbEntity
  8
0
  6
BYBLOCK
 62
     0
100
AcDbLine
 10
3.6
 20
-1.0
 30
0.0
 11
2.104893
 21
-1.0
 31
0.0
  0
SOLID
  5
7F
100
AcDbEntity
  8
0
  6
BYBLOCK
 62
     0
100
AcDbTrace
 10
3.6
 20
-1.0
 30
0.0
 11
3.5
 21
-1.016667
 31
0.0
 12
3.5
 22
-0.983333
 32
0.0
 13
3.5
 23
-0.983333
 33
0.0
  0
MTEXT
  5
80
100
AcDbEntity
  8
0
  6
BYBLOCK
 62
     0
100
AcDbMText
 10
1.806644
 20
-1.0
 30
0.0
 40
0.075
 41
0.0
 71
     5
 72
     1
  1
\A1;3.600
  0
ENDBLK
  5
82
100
AcDbEntity
  8
DIMS
100
AcDbBlockEnd
  0
BLOCK
  5
94
100
AcDbEntity
  8
0
100
AcDbBlockBegin
  2
*D5
 70
     1
 10
0.0
 20
0.0
 30
0.0
  3
*D5
  1

  0
POINT
  5
8B
100
AcDbEntity
  8
DEFPOINTS
  6
BYBLOCK
 62
     0
100
AcDbPoint
 10
0.0
 20
0.0
 30
0.0
  0
POINT
  5
8C
100
AcDbEntity
  8
DEFPOINTS
  6
BYBLOCK
 62
     0
100
AcDbPoint
 10
0.0
 20
2.6
 30
0.0
  0
LINE
  5
8D
100
AcDbEntity
  8
0
  6
BYBLOCK
 62
     0
100
AcDbLine
 10
-0.1
 20
0.0
 30
0.0
 11
-1.175718
 21
0.0
 31
0.0
  0
LINE
  5
8E
100
AcDbEntity
  8
0
  6
BYBLOCK
 62
     0
100
AcDbLine
 10
-0.1
 20
2.6
 30
0.0
 11
-1.175718
 21
2.6
 31
0.0
  0
LINE
  5
8F
100
AcDbEntity
  8
0
  6
BYBLOCK
 62
     0
100
AcDbLine
 10
-1.115718
 20
0.0
 30
0.0
 11
-1.115718
 21
1.190203
 31
0.0
  0
SOLID
  5
90
100
AcDbEntity
  8
0
  6
BYBLOCK
 62
     0
100
AcDbTrace
 10
-1.115718
 20
0.0
 30
0.0
 11
-1.099051
 21
0.1
 31
0.0
 12
-1.132385
 22
0.1
 32
0.0
 13
-1.132385
 23
0.1
 33
0.0
  0
LINE
  5
91
100
AcDbEntity
  8
0
  6
BYBLOCK
 62
     0
100
AcDbLine
 10
-1.115718
 20
2.6
 30
0.0
 11
-1.115718
 21
1.370928
 31
0.0
  0
SOLID
  5
92
100
AcDbEntity
  8
0
  6
BYBLOCK
 62
     0
100
AcDbTrace
 10
-1.115718
 20
2.6
 30
0.0
 11
-1.099051
 21
2.5
 31
0.0
 12
-1.132385
 22
2.5
 32
0.0
 13
-1.132385
 23
2.5
 33
0.0
  0
MTEXT
  5
93
100
AcDbEntity
  8
0
  6
BYBLOCK
 62
     0
100
AcDbMText
 10
-1.115718
 20
1.280566
 30
0.0
 40
0.075
 41
0.0
 71
     5
 72
     1
  1
\A1;2.600
  0
ENDBLK
  5
95
100
AcDbEntity
  8
DIMS
100
AcDbBlockEnd
  0
BLOCK
  5
74
100
AcDbEntity
  8
0
100
AcDbBlockBegin
  2
*D6
 70
     1
 10
0.0
 20
0.0
 30
0.0
  3
*D6
  1

  0
POINT
  5
6B
100
AcDbEntity
  8
DEFPOINTS
  6
BYBLOCK
 62
     0
100
AcDbPoint
 10
0.0
 20
0.0
 30
0.0
  0
POINT
  5
6C
100
AcDbEntity
  8
DEFPOINTS
  6
BYBLOCK
 62
     0
100
AcDbPoint
 10
2.0
 20
0.59
 30
0.0
  0
LINE
  5
6D
100
AcDbEntity
  8
0
  6
BYBLOCK
 62
     0
100
AcDbLine
 10
0.0
 20
-0.1
 30
0.0
 11
0.0
 21
-0.66
 31
0.0
  0
LINE
  5
6E
100
AcDbEntity
  8
0
  6
BYBLOCK
 62
     0
100
AcDbLine
 10
2.0
 20
0.49
 30
0.0
 11
2.0
 21
-0.66
 31
0.0
  0
LINE
  5
6F
100
AcDbEntity
  8
0
  6
BYBLOCK
 62
     0
100
AcDbLine
 10
0.0
 20
-0.6
 30
0.0
 11
0.712559
 21
-0.6
 31
0.0
  0
SOLID
  5
70
100
AcDbEntity
  8
0
  6
BYBLOCK
 62
     0
100
AcDbTrace
 10
0.0
 20
-0.6
 30
0.0
 11
0.1
 21
-0.616667
 31
0.0
 12
0.1
 22
-0.583333
 32
0.0
 13
0.1
 23
-0.583333
 33
0.0
  0
LINE
  5
71
100
AcDbEntity
  8
0
  6
BYBLOCK
 62
     0
100
AcDbLine
 10
2.0
 20
-0.6
 30
0.0
 11
1.312116
 21
-0.6
 31
0.0
  0
SOLID
  5
72
100
AcDbEntity
  8
0
  6
BYBLOCK
 62
     0
100
AcDbTrace
 10
2.0
 20
-0.6
 30
0.0
 11
1.9
 21
-0.616667
 31
0.0
 12
1.9
 22
-0.583333
 32
0.0
 13
1.9
 23
-0.583333
 33
0.0
  0
MTEXT
  5
73
100
AcDbEntity
  8
0
  6
BYBLOCK
 62
     0
100
AcDbMText
 10
1.012337
 20
-0.6
 30
0.0
 40
0.075
 41
0.0
 71
     5
 72
     1
  1
\A1;2.000
  0
ENDBLK
  5
75
100
AcDbEntity
  8
DIMS
100
AcDbBlockEnd
  0
BLOCK
  5
126
100
AcDbEntity
  8
0
100
AcDbBlockBegin
  2
*D7
 70
     1
 10
0.0
 20
0.0
 30
0.0
  3
*D7
  1

  0
POINT
  5
11D
100
AcDbEntity
  8
DEFPOINTS
  6
BYBLOCK
 62
     0
100
AcDbPoint
 10
3.6
 20
0.0
 30
0.0
  0
POINT
  5
11E
100
AcDbEntity
  8
DEFPOINTS
  6
BYBLOCK
 62
     0
100
AcDbPoint
 10
2.0
 20
0.59
 30
0.0
  0
LINE
  5
11F
100
AcDbEntity
  8
0
  6
BYBLOCK
 62
     0
100
AcDbLine
 10
3.7
 20
0.0
 30
0.0
 11
4.242139
 21
0.0
 31
0.0
  0
LINE
  5
120
100
AcDbEntity
  8
0
  6
BYBLOCK
 62
     0
100
AcDbLine
 10
2.1
 20
0.59
 30
0.0
 11
4.242139
 21
0.59
 31
0.0
  0
LINE
  5
121
100
AcDbEntity
  8
0
  6
BYBLOCK
 62
     0
100
AcDbLine
 10
4.182139
 20
0.0
 30
0.0
 11
4.182139
 21
0.181345
 31
0.0
  0
SOLID
  5
122
100
AcDbEntity
  8
0
  6
BYBLOCK
 62
     0
100
AcDbTrace
 10
4.182139
 20
0.0
 30
0.0
 11
4.198806
 21
0.1
 31
0.0
 12
4.165472
 22
0.1
 32
0.0
 13
4.165472
 23
0.1
 33
0.0
  0
LINE
  5
123
100
AcDbEntity
  8
0
  6
BYBLOCK
 62
     0
100
AcDbLine
 10
4.182139
 20
0.59
 30
0.0
 11
4.182139
 21
0.362069
 31
0.0
  0
SOLID
  5
124
100
AcDbEntity
  8
0
  6
BYBLOCK
 62
     0
100
AcDbTrace
 10
4.182139
 20
0.59
 30
0.0
 11
4.198806
 21
0.49
 31
0.0
 12
4.165472
 22
0.49
 32
0.0
 13
4.165472
 23
0.49
 33
0.0
  0
MTEXT
  5
125
100
AcDbEntity
  8
0
  6
BYBLOCK
 62
     0
100
AcDbMText
 10
4.182139
 20
0.271707
 30
0.0
 40
0.075
 41
0.0
 71
     5
 72
     1
  1
\A1;0.590
  0
ENDBLK
  5
127
100
AcDbEntity
  8
DIMS
100
AcDbBlockEnd
  0
BLOCK
  5
10B
100
AcDbEntity
  8
0
100
AcDbBlockBegin
  2
*D8
 70
     1
 10
0.0
 20
0.0
 30
0.0
  3
*D8
  1

  0
POINT
  5
102
100
AcDbEntity
  8
DEFPOINTS
  6
BYBLOCK
 62
     0
100
AcDbPoint
 10
3.6
 20
0.0
 30
0.0
  0
POINT
  5
103
100
AcDbEntity
  8
DEFPOINTS
  6
BYBLOCK
 62
     0
100
AcDbPoint
 10
3.4
 20
1.65
 30
0.0
  0
LINE
  5
104
100
AcDbEntity
  8
0
  6
BYBLOCK
 62
     0
100
AcDbLine
 10
3.7
 20
0.0
 30
0.0
 11
4.464842
 21
0.0
 31
0.0
  0
LINE
  5
105
100
AcDbEntity
  8
0
  6
BYBLOCK
 62
     0
100
AcDbLine
 10
3.5
 20
1.65
 30
0.0
 11
4.464842
 21
1.65
 31
0.0
  0
LINE
  5
106
100
AcDbEntity
  8
0
  6
BYBLOCK
 62
     0
100
AcDbLine
 10
4.404842
 20
0.0
 30
0.0
 11
4.404842
 21
0.734638
 31
0.0
  0
SOLID
  5
107
100
AcDbEntity
  8
0
  6
BYBLOCK
 62
     0
100
AcDbTrace
 10
4.404842
 20
0.0
 30
0.0
 11
4.421508
 21
0.1
 31
0.0
 12
4.388175
 22
0.1
 32
0.0
 13
4.388175
 23
0.1
 33
0.0
  0
LINE
  5
108
100
AcDbEntity
  8
0
  6
BYBLOCK
 62
     0
100
AcDbLine
 10
4.404842
 20
1.65
 30
0.0
 11
4.404842
 21
0.915362
 31
0.0
  0
SOLID
  5
109
100
AcDbEntity
  8
0
  6
BYBLOCK
 62
     0
100
AcDbTrace
 10
4.404842
 20
1.65
 30
0.0
 11
4.421508
 21
1.55
 31
0.0
 12
4.388175
 22
1.55
 32
0.0
 13
4.388175
 23
1.55
 33
0.0
  0
MTEXT
  5
10A
100
AcDbEntity
  8
0
  6
BYBLOCK
 62
     0
100
AcDbMText
 10
4.404842
 20
0.825
 30
0.0
 40
0.075
 41
0.0
 71
     5
 72
     1
  1
\A1;1.650
  0
ENDBLK
  5
10C
100
AcDbEntity
  8
DIMS
100
AcDbBlockEnd
  0
BLOCK
  5
FE
100
AcDbEntity
  8
0
100
AcDbBlockBegin
  2
*D9
 70
     1
 10
0.0
 20
0.0
 30
0.0
  3
*D9
  1

  0
POINT
  5
F5
100
AcDbEntity
  8
DEFPOINTS
  6
BYBLOCK
 62
     0
100
AcDbPoint
 10
3.6
 20
0.0
 30
0.0
  0
POINT
  5
F6
100
AcDbEntity
  8
DEFPOINTS
  6
BYBLOCK
 62
     0
100
AcDbPoint
 10
2.2
 20
2.1
 30
0.0
  0
LINE
  5
F7
100
AcDbEntity
  8
0
  6
BYBLOCK
 62
     0
100
AcDbLine
 10
3.7
 20
0.0
 30
0.0
 11
4.724661
 21
0.0
 31
0.0
  0
LINE
  5
F8
100
AcDbEntity
  8
0
  6
BYBLOCK
 62
     0
100
AcDbLine
 10
2.3
 20
2.1
 30
0.0
 11
4.724661
 21
2.1
 31
0.0
  0
LINE
  5
F9
100
AcDbEntity
  8
0
  6
BYBLOCK
 62
     0
100
AcDbLine
 10
4.664661
 20
0.0
 30
0.0
 11
4.664661
 21
0.959638
 31
0.0
  0
SOLID
  5
FA
100
AcDbEntity
  8
0
  6
BYBLOCK
 62
     0
100
AcDbTrace
 10
4.664661
 20
0.0
 30
0.0
 11
4.681328
 21
0.1
 31
0.0
 12
4.647995
 22
0.1
 32
0.0
 13
4.647995
 23
0.1
 33
0.0
  0
LINE
  5
FB
100
AcDbEntity
  8
0
  6
BYBLOCK
 62
     0
100
AcDbLine
 10
4.664661
 20
2.1
 30
0.0
 11
4.664661
 21
1.140362
 31
0.0
  0
SOLID
  5
FC
100
AcDbEntity
  8
0
  6
BYBLOCK
 62
     0
100
AcDbTrace
 10
4.664661
 20
2.1
 30
0.0
 11
4.681328
 21
2.0
 31
0.0
 12
4.647995
 22
2.0
 32
0.0
 13
4.647995
 23
2.0
 33
0.0
  0
MTEXT
  5
FD
100
AcDbEntity
  8
0
  6
BYBLOCK
 62
     0
100
AcDbMText
 10
4.664661
 20
1.05
 30
0.0
 40
0.075
 41
0.0
 71
     5
 72
     1
  1
\A1;2.100
  0
ENDBLK
  5
FF
100
AcDbEntity
  8
DIMS
100
AcDbBlockEnd
  0
BLOCK
  5
67
100
AcDbEntity
  8
0
100
AcDbBlockBegin
  2
*D10
 70
     1
 10
0.0
 20
0.0
 30
0.0
  3
*D10
  1

  0
POINT
  5
5E
100
AcDbEntity
  8
DEFPOINTS
  6
BYBLOCK
 62
     0
100
AcDbPoint
 10
0.0
 20
2.6
 30
0.0
  0
POINT
  5
5F
100
AcDbEntity
  8
DEFPOINTS
  6
BYBLOCK
 62
     0
100
AcDbPoint
 10
2.2
 20
2.1
 30
0.0
  0
LINE
  5
60
100
AcDbEntity
  8
0
  6
BYBLOCK
 62
     0
100
AcDbLine
 10
0.0
 20
2.7
 30
0.0
 11
0.0
 21
2.852266
 31
0.0
  0
LINE
  5
61
100
AcDbEntity
  8
0
  6
BYBLOCK
 62
     0
100
AcDbLine
 10
2.2
 20
2.2
 30
0.0
 11
2.2
 21
2.852266
 31
0.0
  0
LINE
  5
62
100
AcDbEntity
  8
0
  6
BYBLOCK
 62
     0
100
AcDbLine
 10
0.0
 20
2.792266
 30
0.0
 11
0.80164
 21
2.792266
 31
0.0
  0
SOLID
  5
63
100
AcDbEntity
  8
0
  6
BYBLOCK
 62
     0
100
AcDbTrace
 10
0.0
 20
2.792266
 30
0.0
 11
0.1
 21
2.7756
 31
0.0
 12
0.1
 22
2.808933
 32
0.0
 13
0.1
 23
2.808933
 33
0.0
  0
LINE
  5
64
100
AcDbEntity
  8
0
  6
BYBLOCK
 62
     0
100
AcDbLine
 10
2.2
 20
2.792266
 30
0.0
 11
1.401197
 21
2.792266
 31
0.0
  0
SOLID
  5
65
100
AcDbEntity
  8
0
  6
BYBLOCK
 62
     0
100
AcDbTrace
 10
2.2
 20
2.792266
 30
0.0
 11
2.1
 21
2.7756
 31
0.0
 12
2.1
 22
2.808933
 32
0.0
 13
2.1
 23
2.808933
 33
0.0
  0
MTEXT
  5
66
100
AcDbEntity
  8
0
  6
BYBLOCK
 62
     0
100
AcDbMText
 10
1.101419
 20
2.792266
 30
0.0
 40
0.075
 41
0.0
 71
     5
 72
     1
  1
\A1;2.200
  0
ENDBLK
  5
68
100
AcDbEntity
  8
DIMS
100
AcDbBlockEnd
  0
BLOCK
  5
5A
100
AcDbEntity
  8
0
100
AcDbBlockBegin
  2
*D11
 70
     1
 10
0.0
 20
0.0
 30
0.0
  3
*D11
  1

  0
POINT
  5
51
100
AcDbEntity
  8
DEFPOINTS
  6
BYBLOCK
 62
     0
100
AcDbPoint
 10
0.0
 20
2.6
 30
0.0
  0
POINT
  5
52
100
AcDbEntity
  8
DEFPOINTS
  6
BYBLOCK
 62
     0
100
AcDbPoint
 10
3.4
 20
1.65
 30
0.0
  0
LINE
  5
53
100
AcDbEntity
  8
0
  6
BYBLOCK
 62
     0
100
AcDbLine
 10
0.0
 20
2.7
 30
0.0
 11
0.0
 21
3.094011
 31
0.0
  0
LINE
  5
54
100
AcDbEntity
  8
0
  6
BYBLOCK
 62
     0
100
AcDbLine
 10
3.4
 20
1.75
 30
0.0
 11
3.4
 21
3.094011
 31
0.0
  0
LINE
  5
55
100
AcDbEntity
  8
0
  6
BYBLOCK
 62
     0
100
AcDbLine
 10
0.0
 20
3.034011
 30
0.0
 11
1.401751
 21
3.034011
 31
0.0
  0
SOLID
  5
56
100
AcDbEntity
  8
0
  6
BYBLOCK
 62
     0
100
AcDbTrace
 10
0.0
 20
3.034011
 30
0.0
 11
0.1
 21
3.017345
 31
0.0
 12
0.1
 22
3.050678
 32
0.0
 13
0.1
 23
3.050678
 33
0.0
  0
LINE
  5
57
100
AcDbEntity
  8
0
  6
BYBLOCK
 62
     0
100
AcDbLine
 10
3.4
 20
3.034011
 30
0.0
 11
1.998249
 21
3.034011
 31
0.0
  0
SOLID
  5
58
100
AcDbEntity
  8
0
  6
BYBLOCK
 62
     0
100
AcDbTrace
 10
3.4
 20
3.034011
 30
0.0
 11
3.3
 21
3.017345
 31
0.0
 12
3.3
 22
3.050678
 32
0.0
 13
3.3
 23
3.050678
 33
0.0
  0
MTEXT
  5
59
100
AcDbEntity
  8
0
  6
BYBLOCK
 62
     0
100
AcDbMText
 10
1.7
 20
3.034011
 30
0.0
 40
0.075
 41
0.0
 71
     5
 72
     1
  1
\A1;3.400
  0
ENDBLK
  5
5B
100
AcDbEntity
  8
DIMS
100
AcDbBlockEnd
  0
BLOCK
  5
2E
100
AcDbEntity
  8
0
100
AcDbBlockBegin
  2
*D12
 70
     1
 10
0.0
 20
0.0
 30
0.0
  3
*D12
  1

  0
POINT
  5
23
100
AcDbEntity
  8
DEFPOINTS
  6
BYBLOCK
 62
     0
100
AcDbPoint
 10
0.0
 20
3.803463
 30
0.0
  0
POINT
  5
25
100
AcDbEntity
  8
DEFPOINTS
  6
BYBLOCK
 62
     0
100
AcDbPoint
 10
0.0
 20
3.738463
 30
0.0
  0
LINE
  5
26
100
AcDbEntity
  8
0
  6
BYBLOCK
 62
     0
100
AcDbLine
 10
-0.1
 20
3.803463
 30
0.0
 11
-0.359167
 21
3.803463
 31
0.0
  0
LINE
  5
27
100
AcDbEntity
  8
0
  6
BYBLOCK
 62
     0
100
AcDbLine
 10
-0.1
 20
3.738463
 30
0.0
 11
-0.359167
 21
3.738463
 31
0.0
  0
LINE
  5
28
100
AcDbEntity
  8
0
  6
BYBLOCK
 62
     0
100
AcDbLine
 10
-0.259167
 20
3.903463
 30
0.0
 11
-0.259167
 21
4.003463
 31
0.0
  0
SOLID
  5
29
100
AcDbEntity
  8
0
  6
BYBLOCK
 62
     0
100
AcDbTrace
 10
-0.259167
 20
3.803463
 30
0.0
 11
-0.275833
 21
3.903463
 31
0.0
 12
-0.2425
 22
3.903463
 32
0.0
 13
-0.2425
 23
3.903463
 33
0.0
  0
LINE
  5
2A
100
AcDbEntity
  8
0
  6
BYBLOCK
 62
     0
100
AcDbLine
 10
-0.259167
 20
3.638463
 30
0.0
 11
-0.259167
 21
3.538463
 31
0.0
  0
SOLID
  5
2B
100
AcDbEntity
  8
0
  6
BYBLOCK
 62
     0
100
AcDbTrace
 10
-0.259167
 20
3.738463
 30
0.0
 11
-0.275833
 21
3.638463
 31
0.0
 12
-0.2425
 22
3.638463
 32
0.0
 13
-0.2425
 23
3.638463
 33
0.0
  0
LINE
  5
2C
100
AcDbEntity
  8
0
  6
BYBLOCK
 62
     0
100
AcDbLine
 10
-0.259167
 20
3.538463
 30
0.0
 11
-0.359167
 21
3.538463
 31
0.0
  0
MTEXT
  5
2D
100
AcDbEntity
  8
0
  6
BYBLOCK
 62
     0
100
AcDbMText
 10
-0.748442
 20
3.538463
 30
0.0
 40
0.075
 41
0.0
 71
     5
 72
     1
  1
\A1;0.065
  0
ENDBLK
  5
2F
100
AcDbEntity
  8
DIMS
100
AcDbBlockEnd
  0
BLOCK
  5
4D
100
AcDbEntity
  8
0
100
AcDbBlockBegin
  2
*D13
 70
     1
 10
0.0
 20
0.0
 30
0.0
  3
*D13
  1

  0
POINT
  5
44
100
AcDbEntity
  8
DEFPOINTS
  6
BYBLOCK
 62
     0
100
AcDbPoint
 10
0.0
 20
0.0
 30
0.0
  0
POINT
  5
45
100
AcDbEntity
  8
DEFPOINTS
  6
BYBLOCK
 62
     0
100
AcDbPoint
 10
2.7
 20
0.5
 30
0.0
  0
LINE
  5
46
100
AcDbEntity
  8
0
  6
BYBLOCK
 62
     0
100
AcDbLine
 10
0.0
 20
-0.1
 30
0.0
 11
0.0
 21
-0.86
 31
0.0
  0
LINE
  5
47
100
AcDbEntity
  8
0
  6
BYBLOCK
 62
     0
100
AcDbLine
 10
2.7
 20
0.4
 30
0.0
 11
2.7
 21
-0.86
 31
0.0
  0
LINE
  5
48
100
AcDbEntity
  8
0
  6
BYBLOCK
 62
     0
100
AcDbLine
 10
0.0
 20
-0.8
 30
0.0
 11
1.068883
 21
-0.8
 31
0.0
  0
SOLID
  5
49
100
AcDbEntity
  8
0
  6
BYBLOCK
 62
     0
100
AcDbTrace
 10
0.0
 20
-0.8
 30
0.0
 11
0.1
 21
-0.816667
 31
0.0
 12
0.1
 22
-0.783333
 32
0.0
 13
0.1
 23
-0.783333
 33
0.0
  0
LINE
  5
4A
100
AcDbEntity
  8
0
  6
BYBLOCK
 62
     0
100
AcDbLine
 10
2.7
 20
-0.8
 30
0.0
 11
1.66844
 21
-0.8
 31
0.0
  0
SOLID
  5
4B
100
AcDbEntity
  8
0
  6
BYBLOCK
 62
     0
100
AcDbTrace
 10
2.7
 20
-0.8
 30
0.0
 11
2.6
 21
-0.816667
 31
0.0
 12
2.6
 22
-0.783333
 32
0.0
 13
2.6
 23
-0.783333
 33
0.0
  0
MTEXT
  5
4C
100
AcDbEntity
  8
0
  6
BYBLOCK
 62
     0
100
AcDbMText
 10
1.368662
 20
-0.8
 30
0.0
 40
0.075
 41
0.0
 71
     5
 72
     1
  1
\A1;2.700
  0
ENDBLK
  5
4E
100
AcDbEntity
  8
DIMS
100
AcDbBlockEnd
  0
BLOCK
  5
3A
100
AcDbEntity
  8
0
100
AcDbBlockBegin
  2
*D14
 70
     1
 10
0.0
 20
0.0
 30
0.0
  3
*D14
  1

  0
LINE
  5
32
100
AcDbEntity
  8
0
  6
BYBLOCK
 62
     0
100
AcDbLine
 10
0.81
 20
0.5
 30
0.0
 11
0.99
 21
0.5
 31
0.0
  0
LINE
  5
33
100
AcDbEntity
  8
0
  6
BYBLOCK
 62
     0
100
AcDbLine
 10
0.9
 20
0.59
 30
0.0
 11
0.9
 21
0.41
 31
0.0
  0
LINE
  5
34
100
AcDbEntity
  8
0
  6
BYBLOCK
 62
     0
100
AcDbLine
 10
0.946249
 20
0.305421
 30
0.0
 11
1.07056
 21
-0.217583
 31
0.0
  0
LINE
  5
35
100
AcDbEntity
  8
0
  6
BYBLOCK
 62
     0
100
AcDbLine
 10
1.07056
 20
-0.217583
 30
0.0
 11
1.25056
 21
-0.217583
 31
0.0
  0
SOLID
  5
36
100
AcDbEntity
  8
0
  6
BYBLOCK
 62
     0
100
AcDbTrace
 10
0.923124
 20
0.40271
 30
0.0
 11
0.930034
 21
0.301567
 31
0.0
 12
0.962464
 22
0.309275
 32
0.0
 13
0.962464
 23
0.309275
 33
0.0
  0
MTEXT
  5
37
100
AcDbEntity
  8
0
  6
BYBLOCK
 62
     0
100
AcDbMText
 10
1.7139
 20
-0.217583
 30
0.0
 40
0.075
 41
0.0
 71
     5
 72
     1
  1
\A1;\U+22050.2000\P[4] PL
  0
POINT
  5
38
100
AcDbEntity
  8
DEFPOINTS
  6
BYBLOCK
 62
     0
100
AcDbPoint
 10
0.876876
 20
0.59729
 30
0.0
  0
POINT
  5
39
100
AcDbEntity
  8
DEFPOINTS
  6
BYBLOCK
 62
     0
100
AcDbPoint
 10
0.923124
 20
0.40271
 30
0.0
  0
ENDBLK
  5
3B
100
AcDbEntity
  8
DIMS
100
AcDbBlockEnd
  0
BLOCK
  5
119
100
AcDbEntity
  8
0
100
AcDbBlockBegin
  2
*D15
 70
     1
 10
0.0
 20
0.0
 30
0.0
  3
*D15
  1

  0
POINT
  5
110
100
AcDbEntity
  8
DEFPOINTS
  6
BYBLOCK
 62
     0
100
AcDbPoint
 10
3.6
 20
0.0
 30
0.0
  0
POINT
  5
111
100
AcDbEntity
  8
DEFPOINTS
  6
BYBLOCK
 62
     0
100
AcDbPoint
 10
2.79
 20
0.5
 30
0.0
  0
LINE
  5
112
100
AcDbEntity
  8
0
  6
BYBLOCK
 62
     0
100
AcDbLine
 10
3.7
 20
0.0
 30
0.0
 11
3.894309
 21
0.0
 31
0.0
  0
LINE
  5
113
100
AcDbEntity
  8
0
  6
BYBLOCK
 62
     0
100
AcDbLine
 10
2.89
 20
0.5
 30
0.0
 11
3.894309
 21
0.5
 31
0.0
  0
LINE
  5
114
100
AcDbEntity
  8
0
  6
BYBLOCK
 62
     0
100
AcDbLine
 10
3.834309
 20
0.0
 30
0.0
 11
3.834309
 21
0.159638
 31
0.0
  0
SOLID
  5
115
100
AcDbEntity
  8
0
  6
BYBLOCK
 62
     0
100
AcDbTrace
 10
3.834309
 20
0.0
 30
0.0
 11
3.850975
 21
0.1
 31
0.0
 12
3.817642
 22
0.1
 32
0.0
 13
3.817642
 23
0.1
 33
0.0
  0
LINE
  5
116
100
AcDbEntity
  8
0
  6
BYBLOCK
 62
     0
100
AcDbLine
 10
3.834309
 20
0.5
 30
0.0
 11
3.834309
 21
0.340362
 31
0.0
  0
SOLID
  5
117
100
AcDbEntity
  8
0
  6
BYBLOCK
 62
     0
100
AcDbTrace
 10
3.834309
 20
0.5
 30
0.0
 11
3.850975
 21
0.4
 31
0.0
 12
3.817642
 22
0.4
 32
0.0
 13
3.817642
 23
0.4
 33
0.0
  0
MTEXT
  5
118
100
AcDbEntity
  8
0
  6
BYBLOCK
 62
     0
100
AcDbMText
 10
3.834309
 20
0.25
 30
0.0
 40
0.075
 41
0.0
 71
     5
 72
     1
  1
\A1;0.500
  0
ENDBLK
  5
11A
100
AcDbEntity
  8
DIMS
100
AcDbBlockEnd
  0
BLOCK
  5
BB
100
AcDbEntity
  8
0
100
AcDbBlockBegin
  2
*D16
 70
     1
 10
0.0
 20
0.0
 30
0.0
  3
*D16
  1

  0
POINT
  5
B2
100
AcDbEntity
  8
DEFPOINTS
  6
BYBLOCK
 62
     0
100
AcDbPoint
 10
0.0
 20
0.0
 30
0.0
  0
POINT
  5
B3
100
AcDbEntity
  8
DEFPOINTS
  6
BYBLOCK
 62
     0
100
AcDbPoint
 10
0.3787
 20
0.589
 30
0.0
  0
LINE
  5
B4
100
AcDbEntity
  8
0
  6
BYBLOCK
 62
     0
100
AcDbLine
 10
-0.1
 20
0.0
 30
0.0
 11
-0.666765
 21
0.0
 31
0.0
  0
LINE
  5
B5
100
AcDbEntity
  8
0
  6
BYBLOCK
 62
     0
100
AcDbLine
 10
0.2787
 20
0.589
 30
0.0
 11
-0.666765
 21
0.589
 31
0.0
  0
LINE
  5
B6
100
AcDbEntity
  8
0
  6
BYBLOCK
 62
     0
100
AcDbLine
 10
-0.606765
 20
0.0
 30
0.0
 11
-0.606765
 21
0.204138
 31
0.0
  0
SOLID
  5
B7
100
AcDbEntity
  8
0
  6
BYBLOCK
 62
     0
100
AcDbTrace
 10
-0.606765
 20
0.0
 30
0.0
 11
-0.590099
 21
0.1
 31
0.0
 12
-0.623432
 22
0.1
 32
0.0
 13
-0.623432
 23
0.1
 33
0.0
  0
LINE
  5
B8
100
AcDbEntity
  8
0
  6
BYBLOCK
 62
     0
100
AcDbLine
 10
-0.606765
 20
0.589
 30
0.0
 11
-0.606765
 21
0.384862
 31
0.0
  0
SOLID
  5
B9
100
AcDbEntity
  8
0
  6
BYBLOCK
 62
     0
100
AcDbTrace
 10
-0.606765
 20
0.589
 30
0.0
 11
-0.590099
 21
0.489
 31
0.0
 12
-0.623432
 22
0.489
 32
0.0
 13
-0.623432
 23
0.489
 33
0.0
  0
MTEXT
  5
BA
100
AcDbEntity
  8
0
  6
BYBLOCK
 62
     0
100
AcDbMText
 10
-0.606765
 20
0.2945
 30
0.0
 40
0.075
 41
0.0
 71
     5
 72
     1
  1
\A1;0.589
  0
ENDBLK
  5
BC
100
AcDbEntity
  8
DIMS
100
AcDbBlockEnd
  0
BLOCK
  5
AE
100
AcDbEntity
  8
0
100
AcDbBlockBegin
  2
*D17
 70
     1
 10
0.0
 20
0.0
 30
0.0
  3
*D17
  1

  0
POINT
  5
A6
100
AcDbEntity
  8
DEFPOINTS
  6
BYBLOCK
 62
     0
100
AcDbPoint
 10
0.3787
 20
0.589
 30
0.0
  0
POINT
  5
A7
100
AcDbEntity
  8
DEFPOINTS
  6
BYBLOCK
 62
     0
100
AcDbPoint
 10
0.0
 20
0.0
 30
0.0
  0
LINE
  5
A8
100
AcDbEntity
  8
0
  6
BYBLOCK
 62
     0
100
AcDbLine
 10
0.3787
 20
0.489
 30
0.0
 11
0.3787
 21
-0.217775
 31
0.0
  0
LINE
  5
A9
100
AcDbEntity
  8
0
  6
BYBLOCK
 62
     0
100
AcDbLine
 10
0.0
 20
-0.1
 30
0.0
 11
0.0
 21
-0.217775
 31
0.0
  0
LINE
  5
AA
100
AcDbEntity
  8
0
  6
BYBLOCK
 62
     0
100
AcDbLine
 10
0.3787
 20
-0.157775
 30
0.0
 11
0.0
 21
-0.157775
 31
0.0
  0
SOLID
  5
AB
100
AcDbEntity
  8
0
  6
BYBLOCK
 62
     0
100
AcDbTrace
 10
0.3787
 20
-0.157775
 30
0.0
 11
0.2787
 21
-0.141108
 31
0.0
 12
0.2787
 22
-0.174441
 32
0.0
 13
0.2787
 23
-0.174441
 33
0.0
  0
SOLID
  5
AC
100
AcDbEntity
  8
0
  6
BYBLOCK
 62
     0
100
AcDbTrace
 10
0.0
 20
-0.157775
 30
0.0
 11
0.1
 21
-0.141108
 31
0.0
 12
0.1
 22
-0.174441
 32
0.0
 13
0.1
 23
-0.174441
 33
0.0
  0
MTEXT
  5
AD
100
AcDbEntity
  8
0
  6
BYBLOCK
 62
     0
100
AcDbMText
 10
-0.186256
 20
-0.15976
 30
0.0
 40
0.075
 41
0.0
 71
     5
 72
     1
  1
\A1;0.379
  0
ENDBLK
  5
AF
100
AcDbEntity
  8
DIMS
100
AcDbBlockEnd
  0
ENDSEC
  0
SECTION
  2
ENTITIES
  0
MTEXT
  5
1E
100
AcDbEntity
  8
DIMS
100
AcDbMText
 10
4.237197
 20
3.822732
 30
0.0
 40
0.375
 41
3.8098
 71
     1
 72
     5
  1
\fDenmark|b0|i0|c0|p2;LabJack\fArial|b0|i0|c0|p34; - U3
  0
MTEXT
  5
1F
100
AcDbEntity
  8
DIMS
100
AcDbMText
 10
5.04637
 20
2.472461
 30
0.0
 40
0.075
 41
3.6685
 71
     1
 72
     5
  1
NOTES:\P1.  USB, PIN 1\P2.  2X5 OEM HEADER, 0.1 PITCH, PIN 1\P3.  2X8 OEM HEADER, 0.1 PITCH, PIN 1
  0
DIMENSION
  5
20
100
AcDbEntity
  8
DIMS
100
AcDbDimension
  2
*D12
 10
-0.259167
 20
3.738463
 30
0.0
 11
-0.748442
 21
3.538463
 31
0.0
  3
STANDARD
100
AcDbAlignedDimension
 13
0.0
 23
3.803463
 33
0.0
 14
0.0
 24
3.738463
 34
0.0
 50
90.0
100
AcDbRotatedDimension
1001
ACAD
1000
DSTYLE
1002
{
1070
    42
1040
0.1
1070
    44
1040
0.0625
1070
   271
1070
     3
1070
    41
1040
0.1
1002
}
  0
DIMENSION
  5
30
100
AcDbEntity
  8
DIMS
100
AcDbDimension
  2
*D14
 10
0.876876
 20
0.59729
 30
0.0
 11
1.7139
 21
-0.217583
 31
0.0
 70
   131
  1
<>\P[4] PL
  3
STANDARD
100
AcDbDiametricDimension
 15
0.923124
 25
0.40271
 35
0.0
 40
0.0
1001
ACAD
1000
DSTYLE
1002
{
1070
    41
1040
0.1
1070
    43
1040
0.38
1070
    44
1040
0.08
1070
   147
1040
0.0
1002
}
  0
INSERT
  5
3C
100
AcDbEntity
  8
DIMS
100
AcDbBlockReference
  2
A$C3E03409D
 10
1.088656
 20
1.344091
 30
0.0
  0
MTEXT
  5
41
102
{ACAD_REACTORS
330
149
102
}
100
AcDbEntity
  8
DIMS
100
AcDbMText
 10
1.302568
 20
1.457245
 30
0.0
 40
0.075
 41
0.0
 71
     6
 72
     1
  1
2.
  0
DIMENSION
  5
42
100
AcDbEntity
  8
DIMS
100
AcDbDimension
  2
*D13
 10
2.7
 20
-0.8
 30
0.0
 11
1.368662
 21
-0.8
 31
0.0
 70
   128
  1
<>
  3
DEF_STANDARD
100
AcDbAlignedDimension
 13
0.0
 23
0.0
 33
0.0
 14
2.7
 24
0.5
 34
0.0
100
AcDbRotatedDimension
  0
DIMENSION
  5
4F
100
AcDbEntity
  8
DIMS
100
AcDbDimension
  2
*D11
 10
3.4
 20
3.034011
 30
0.0
 11
1.7
 21
3.034011
 31
0.0
 70
   128
  1
<>
  3
DEF_STANDARD
100
AcDbAlignedDimension
 13
0.0
 23
2.6
 33
0.0
 14
3.4
 24
1.65
 34
0.0
100
AcDbRotatedDimension
  0
DIMENSION
  5
5C
100
AcDbEntity
  8
DIMS
100
AcDbDimension
  2
*D10
 10
2.2
 20
2.792266
 30
0.0
 11
1.101419
 21
2.792266
 31
0.0
 70
   128
  1
<>
  3
DEF_STANDARD
100
AcDbAlignedDimension
 13
0.0
 23
2.6
 33
0.0
 14
2.2
 24
2.1
 34
0.0
100
AcDbRotatedDimension
  0
DIMENSION
  5
69
100
AcDbEntity
  8
DIMS
100
AcDbDimension
  2
*D6
 10
2.0
 20
-0.6
 30
0.0
 11
1.012337
 21
-0.6
 31
0.0
 70
   128
  1
<>
  3
DEF_STANDARD
100
AcDbAlignedDimension
 13
0.0
 23
0.0
 33
0.0
 14
2.0
 24
0.59
 34
0.0
100
AcDbRotatedDimension
  0
DIMENSION
  5
76
100
AcDbEntity
  8
DIMS
100
AcDbDimension
  2
*D4
 10
3.6
 20
-1.0
 30
0.0
 11
1.806644
 21
-1.0
 31
0.0
 70
   128
  1
<>
  3
DEF_STANDARD
100
AcDbAlignedDimension
 13
0.0
 23
0.0
 33
0.0
 14
3.6
 24
0.0
 34
0.0
100
AcDbRotatedDimension
  0
LINE
  5
83
100
AcDbEntity
  8
0
100
AcDbLine
 10
3.6
 20
3.803463
 30
0.0
 11
0.0
 21
3.803463
 31
0.0
  0
LINE
  5
84
100
AcDbEntity
  8
0
100
AcDbLine
 10
0.0
 20
3.738463
 30
0.0
 11
3.6
 21
3.738463
 31
0.0
  0
LINE
  5
85
100
AcDbEntity
  8
0
100
AcDbLine
 10
3.6
 20
0.0
 30
0.0
 11
0.0
 21
0.0
 31
0.0
  0
LINE
  5
86
100
AcDbEntity
  8
0
100
AcDbLine
 10
0.0
 20
2.6
 30
0.0
 11
3.6
 21
2.6
 31
0.0
  0
MTEXT
  5
87
102
{ACAD_REACTORS
330
88
102
}
100
AcDbEntity
  8
DIMS
100
AcDbMText
 10
0.730274
 20
1.052022
 30
0.0
 40
0.075
 41
0.0
 71
     4
 72
     1
  1
\A1;
  0
LEADER
  5
88
100
AcDbEntity
  8
DIMS
100
AcDbLeader
  3
DEF_STANDARD
 73
     0
 74
     0
 75
     1
 40
0.075
 76
     3
 10
0.3987
 20
0.609
 30
0.0
 10
0.713905
 20
1.023265
 30
0.0
 10
0.813905
 20
1.023265
 30
0.0
 77
   256
340
87
213
0.0836304636945542
223
-0.0287571310442871
233
0.0
  0
DIMENSION
  5
89
100
AcDbEntity
  8
DIMS
100
AcDbDimension
  2
*D5
 10
-1.115718
 20
2.6
 30
0.0
 11
-1.115718
 21
1.280566
 31
0.0
 70
   128
  1
<>
  3
DEF_STANDARD
100
AcDbAlignedDimension
 13
0.0
 23
0.0
 33
0.0
 14
0.0
 24
2.6
 34
0.0
 50
90.0
100
AcDbRotatedDimension
  0
DIMENSION
  5
96
100
AcDbEntity
  8
DIMS
100
AcDbDimension
  2
*D3
 10
-0.853373
 20
2.1
 30
0.0
 11
-0.853373
 21
1.028341
 31
0.0
 70
   128
  1
<>
  3
DEF_STANDARD
100
AcDbAlignedDimension
 13
0.0
 23
0.0
 33
0.0
 14
0.9
 24
2.1
 34
0.0
 50
90.0
100
AcDbRotatedDimension
  0
LINE
  5
A3
100
AcDbEntity
  8
0
100
AcDbLine
 10
0.0
 20
0.0
 30
0.0
 11
0.0
 21
2.6
 31
0.0
  0
DIMENSION
  5
A4
100
AcDbEntity
  8
DIMS
100
AcDbDimension
  2
*D17
 10
0.0
 20
-0.157775
 30
0.0
 11
-0.186256
 21
-0.15976
 31
0.0
 70
   128
  1
<>
  3
DEF_STANDARD
100
AcDbAlignedDimension
 13
0.3787
 23
0.589
 33
0.0
 14
0.0
 24
0.0
 34
0.0
100
AcDbRotatedDimension
  0
DIMENSION
  5
B0
100
AcDbEntity
  8
DIMS
100
AcDbDimension
  2
*D16
 10
-0.606765
 20
0.589
 30
0.0
 11
-0.606765
 21
0.2945
 31
0.0
  1
<>
  3
DEF_STANDARD
100
AcDbAlignedDimension
 13
0.0
 23
0.0
 33
0.0
 14
0.3787
 24
0.589
 34
0.0
 50
90.0
100
AcDbRotatedDimension
  0
DIMENSION
  5
BD
100
AcDbEntity
  8
DIMS
100
AcDbDimension
  2
*D2
 10
-0.287262
 20
0.5
 30
0.0
 11
-0.287262
 21
0.249411
 31
0.0
 70
   128
  1
<>
  3
STANDARD
100
AcDbAlignedDimension
 13
0.0
 23
0.0
 33
0.0
 14
0.9
 24
0.5
 34
0.0
 50
90.0
100
AcDbRotatedDimension
1001
ACAD
1000
DSTYLE
1002
{
1070
    41
1040
0.1
1070
    42
1040
0.1
1070
    44
1040
0.0625
1070
   147
1040
0.0
1070
   271
1070
     3
1002
}
  0
DIMENSION
  5
CA
100
AcDbEntity
  8
DIMS
100
AcDbDimension
  2
*D1
 10
0.9
 20
-0.4
 30
0.0
 11
0.440734
 21
-0.4
 31
0.0
 70
   128
  1
<>
  3
DEF_STANDARD
100
AcDbAlignedDimension
 13
0.0
 23
0.0
 33
0.0
 14
0.9
 24
0.5
 34
0.0
100
AcDbRotatedDimension
  0
LWPOLYLINE
  5
D7
100
AcDbEntity
  8
0
100
AcDbPolyline
 90
        4
 70
     1
 43
0.0
 10
0.38
 20
0.165
 10
0.38
 20
0.125
 10
0.42
 20
0.125
 10
0.42
 20
0.165
  0
CIRCLE
  5
D8
100
AcDbEntity
  8
0
100
AcDbCircle
 10
0.4
 20
0.145
 30
0.0
 40
0.02
  0
CIRCLE
  5
D9
100
AcDbEntity
  8
0
100
AcDbCircle
 10
0.5
 20
0.145
 30
0.0
 40
0.02
  0
LINE
  5
DA
100
AcDbEntity
  8
DIMS
100
AcDbLine
 10
0.2887
 20
0.589
 30
0.0
 11
0.4687
 21
0.589
 31
0.0
  0
LINE
  5
DB
100
AcDbEntity
  8
DIMS
100
AcDbLine
 10
0.3787
 20
0.679
 30
0.0
 11
0.3787
 21
0.499
 31
0.0
  0
CIRCLE
  5
DC
100
AcDbEntity
  8
0
100
AcDbCircle
 10
0.3007
 20
0.589
 30
0.0
 40
0.02
  0
LWPOLYLINE
  5
DD
100
AcDbEntity
  8
0
100
AcDbPolyline
 90
        4
 70
     1
 43
0.0
 10
0.3587
 20
0.609
 10
0.3587
 20
0.569
 10
0.3987
 20
0.569
 10
0.3987
 20
0.609
  0
CIRCLE
  5
DE
100
AcDbEntity
  8
0
100
AcDbCircle
 10
0.3787
 20
0.589
 30
0.0
 40
0.02
  0
CIRCLE
  5
DF
100
AcDbEntity
  8
0
100
AcDbCircle
 10
0.3007
 20
0.687
 30
0.0
 40
0.02
  0
CIRCLE
  5
E0
100
AcDbEntity
  8
0
100
AcDbCircle
 10
0.3787
 20
0.687
 30
0.0
 40
0.02
  0
LINE
  5
E1
100
AcDbEntity
  8
DIMS
100
AcDbLine
 10
0.9
 20
0.41
 30
0.0
 11
0.9
 21
0.59
 31
0.0
  0
CIRCLE
  5
E2
100
AcDbEntity
  8
0
100
AcDbCircle
 10
0.9
 20
0.5
 30
0.0
 40
0.1
  0
CIRCLE
  5
E3
100
AcDbEntity
  8
0
100
AcDbCircle
 10
0.9968
 20
0.1
 30
0.0
 40
0.02559
  0
LWPOLYLINE
  5
E4
100
AcDbEntity
  8
0
100
AcDbPolyline
 90
        4
 70
     1
 43
0.0
 10
0.77441
 20
0.12559
 10
0.77441
 20
0.07441
 10
0.82559
 20
0.07441
 10
0.82559
 20
0.12559
  0
CIRCLE
  5
E5
100
AcDbEntity
  8
0
100
AcDbCircle
 10
0.8
 20
0.1
 30
0.0
 40
0.02559
  0
CIRCLE
  5
E6
100
AcDbEntity
  8
0
100
AcDbCircle
 10
1.1936
 20
0.1
 30
0.0
 40
0.02559
  0
LINE
  5
E7
100
AcDbEntity
  8
DIMS
100
AcDbLine
 10
0.81
 20
0.5
 30
0.0
 11
0.99
 21
0.5
 31
0.0
  0
LWPOLYLINE
  5
E8
100
AcDbEntity
  8
DIMS
100
AcDbPolyline
 90
        3
 70
     1
 43
0.0
 10
0.9501
 20
1.212809
 10
0.776895
 20
0.912809
 10
1.123305
 20
0.912809
  0
MTEXT
  5
E9
100
AcDbEntity
  8
DIMS
100
AcDbMText
 10
0.990054
 20
1.02531
 30
0.0
 40
0.075
 41
0.0
 71
     6
 72
     1
  1
\A1;1.
  0
CIRCLE
  5
EA
100
AcDbEntity
  8
0
100
AcDbCircle
 10
0.9
 20
2.1
 30
0.0
 40
0.1
  0
LINE
  5
EB
100
AcDbEntity
  8
DIMS
100
AcDbLine
 10
0.81
 20
2.1
 30
0.0
 11
0.99
 21
2.1
 31
0.0
  0
LINE
  5
EC
100
AcDbEntity
  8
DIMS
100
AcDbLine
 10
0.9
 20
2.01
 30
0.0
 11
0.9
 21
2.19
 31
0.0
  0
LINE
  5
ED
100
AcDbEntity
  8
0
100
AcDbLine
 10
0.0
 20
3.803463
 30
0.0
 11
0.0
 21
3.738463
 31
0.0
  0
CIRCLE
  5
EE
100
AcDbEntity
  8
0
100
AcDbCircle
 10
0.9914
 20
2.5
 30
0.0
 40
0.02559
  0
CIRCLE
  5
EF
100
AcDbEntity
  8
0
100
AcDbCircle
 10
0.7946
 20
2.5
 30
0.0
 40
0.02559
  0
CIRCLE
  5
F0
100
AcDbEntity
  8
0
100
AcDbCircle
 10
1.1882
 20
2.5
 30
0.0
 40
0.02559
  0
MTEXT
  5
F1
102
{ACAD_REACTORS
330
F2
102
}
100
AcDbEntity
  8
DIMS
100
AcDbMText
 10
1.54329
 20
1.492894
 30
0.0
 40
0.075
 41
0.0
 71
     6
 72
     1
  1
\A1;
  0
LEADER
  5
F2
100
AcDbEntity
  8
DIMS
100
AcDbLeader
  3
STANDARD
 73
     0
 75
     1
 40
0.075
 76
     3
 10
2.0
 20
0.61
 30
0.0
 10
1.492568
 20
1.457245
 30
0.0
 10
1.392568
 20
1.457245
 30
0.0
 77
   256
340
F1
213
-0.2407218450139652
223
-0.0356489499869355
233
0.0
1001
ACAD
1000
DSTYLE
1002
{
1070
    42
1040
0.1
1070
    44
1040
0.0625
1070
   271
1070
     3
1070
    41
1040
0.1
1002
}
  0
DIMENSION
  5
F3
100
AcDbEntity
  8
DIMS
100
AcDbDimension
  2
*D9
 10
4.664661
 20
2.1
 30
0.0
 11
4.664661
 21
1.05
 31
0.0
 70
   128
  1
<>
  3
DEF_STANDARD
100
AcDbAlignedDimension
 13
3.6
 23
0.0
 33
0.0
 14
2.2
 24
2.1
 34
0.0
 50
90.0
100
AcDbRotatedDimension
  0
DIMENSION
  5
100
100
AcDbEntity
  8
DIMS
100
AcDbDimension
  2
*D8
 10
4.404842
 20
1.65
 30
0.0
 11
4.404842
 21
0.825
 31
0.0
 70
   128
  1
<>
  3
DEF_STANDARD
100
AcDbAlignedDimension
 13
3.6
 23
0.0
 33
0.0
 14
3.4
 24
1.65
 34
0.0
 50
90.0
100
AcDbRotatedDimension
  0
LINE
  5
10D
100
AcDbEntity
  8
0
100
AcDbLine
 10
3.6
 20
2.6
 30
0.0
 11
3.6
 21
0.0
 31
0.0
  0
DIMENSION
  5
10E
100
AcDbEntity
  8
DIMS
100
AcDbDimension
  2
*D15
 10
3.834309
 20
0.5
 30
0.0
 11
3.834309
 21
0.25
 31
0.0
 70
   128
  1
<>
  3
DEF_STANDARD
100
AcDbAlignedDimension
 13
3.6
 23
0.0
 33
0.0
 14
2.79
 24
0.5
 34
0.0
 50
90.0
100
AcDbRotatedDimension
  0
DIMENSION
  5
11B
100
AcDbEntity
  8
DIMS
100
AcDbDimension
  2
*D7
 10
4.182139
 20
0.59
 30
0.0
 11
4.182139
 21
0.271707
 31
0.0
 70
   128
  1
<>
  3
DEF_STANDARD
100
AcDbAlignedDimension
 13
3.6
 23
0.0
 33
0.0
 14
2.0
 24
0.59
 34
0.0
 50
90.0
100
AcDbRotatedDimension
  0
CIRCLE
  5
128
100
AcDbEntity
  8
0
100
AcDbCircle
 10
2.2958
 20
0.1
 30
0.0
 40
0.02559
  0
CIRCLE
  5
129
100
AcDbEntity
  8
0
100
AcDbCircle
 10
1.3904
 20
0.1
 30
0.0
 40
0.02559
  0
LWPOLYLINE
  5
12A
100
AcDbEntity
  8
0
100
AcDbPolyline
 90
        4
 70
     1
 43
0.0
 10
1.67441
 20
0.12559
 10
1.67441
 20
0.07441
 10
1.72559
 20
0.07441
 10
1.72559
 20
0.12559
  0
CIRCLE
  5
12B
100
AcDbEntity
  8
0
100
AcDbCircle
 10
1.7
 20
0.1
 30
0.0
 40
0.02559
  0
CIRCLE
  5
12C
100
AcDbEntity
  8
0
100
AcDbCircle
 10
1.6
 20
0.49
 30
0.0
 40
0.02
  0
CIRCLE
  5
12D
100
AcDbEntity
  8
0
100
AcDbCircle
 10
1.6
 20
0.59
 30
0.0
 40
0.02
  0
CIRCLE
  5
12E
100
AcDbEntity
  8
0
100
AcDbCircle
 10
1.7
 20
0.49
 30
0.0
 40
0.02
  0
CIRCLE
  5
12F
100
AcDbEntity
  8
0
100
AcDbCircle
 10
1.7
 20
0.59
 30
0.0
 40
0.02
  0
CIRCLE
  5
130
100
AcDbEntity
  8
0
100
AcDbCircle
 10
1.8986
 20
0.1
 30
0.0
 40
0.02559
  0
CIRCLE
  5
131
100
AcDbEntity
  8
0
100
AcDbCircle
 10
2.0972
 20
0.1
 30
0.0
 40
0.02559
  0
LINE
  5
132
100
AcDbEntity
  8
DIMS
100
AcDbLine
 10
1.91
 20
0.59
 30
0.0
 11
2.09
 21
0.59
 31
0.0
  0
LINE
  5
133
100
AcDbEntity
  8
DIMS
100
AcDbLine
 10
1.91
 20
0.59
 30
0.0
 11
2.09
 21
0.59
 31
0.0
  0
CIRCLE
  5
134
100
AcDbEntity
  8
0
100
AcDbCircle
 10
2.0
 20
0.49
 30
0.0
 40
0.02
  0
LWPOLYLINE
  5
135
100
AcDbEntity
  8
0
100
AcDbPolyline
 90
        4
 70
     1
 43
0.0
 10
1.98
 20
0.61
 10
1.98
 20
0.57
 10
2.02
 20
0.57
 10
2.02
 20
0.61
  0
CIRCLE
  5
136
100
AcDbEntity
  8
0
100
AcDbCircle
 10
2.0
 20
0.59
 30
0.0
 40
0.02
  0
LINE
  5
137
100
AcDbEntity
  8
DIMS
100
AcDbLine
 10
2.0
 20
0.5
 30
0.0
 11
2.0
 21
0.68
 31
0.0
  0
LINE
  5
138
100
AcDbEntity
  8
DIMS
100
AcDbLine
 10
2.0
 20
0.5
 30
0.0
 11
2.0
 21
0.68
 31
0.0
  0
CIRCLE
  5
139
100
AcDbEntity
  8
0
100
AcDbCircle
 10
1.9
 20
0.49
 30
0.0
 40
0.02
  0
CIRCLE
  5
13A
100
AcDbEntity
  8
0
100
AcDbCircle
 10
1.9
 20
0.59
 30
0.0
 40
0.02
  0
CIRCLE
  5
13B
100
AcDbEntity
  8
0
100
AcDbCircle
 10
1.8
 20
0.49
 30
0.0
 40
0.02
  0
CIRCLE
  5
13C
100
AcDbEntity
  8
0
100
AcDbCircle
 10
1.8
 20
0.59
 30
0.0
 40
0.02
  0
CIRCLE
  5
13D
100
AcDbEntity
  8
0
100
AcDbCircle
 10
2.7968
 20
0.1
 30
0.0
 40
0.02559
  0
CIRCLE
  5
13E
100
AcDbEntity
  8
0
100
AcDbCircle
 10
2.7
 20
0.5
 30
0.0
 40
0.1
  0
LINE
  5
13F
100
AcDbEntity
  8
DIMS
100
AcDbLine
 10
2.7
 20
0.41
 30
0.0
 11
2.7
 21
0.59
 31
0.0
  0
LWPOLYLINE
  5
140
100
AcDbEntity
  8
0
100
AcDbPolyline
 90
        4
 70
     1
 43
0.0
 10
2.57441
 20
0.12559
 10
2.57441
 20
0.07441
 10
2.62559
 20
0.07441
 10
2.62559
 20
0.12559
  0
CIRCLE
  5
141
100
AcDbEntity
  8
0
100
AcDbCircle
 10
2.6
 20
0.1
 30
0.0
 40
0.02559
  0
LINE
  5
142
100
AcDbEntity
  8
DIMS
100
AcDbLine
 10
2.61
 20
0.5
 30
0.0
 11
2.79
 21
0.5
 31
0.0
  0
CIRCLE
  5
143
100
AcDbEntity
  8
0
100
AcDbCircle
 10
2.9936
 20
0.1
 30
0.0
 40
0.02559
  0
CIRCLE
  5
144
100
AcDbEntity
  8
0
100
AcDbCircle
 10
3.1904
 20
0.1
 30
0.0
 40
0.02559
  0
MTEXT
  5
145
102
{ACAD_REACTORS
330
146
102
}
100
AcDbEntity
  8
DIMS
100
AcDbMText
 10
3.009217
 20
1.400844
 30
0.0
 40
0.075
 41
0.0
 71
     6
 72
     1
  1
\A1;3.
  0
LEADER
  5
146
100
AcDbEntity
  8
DIMS
100
AcDbLeader
  3
STANDARD
 73
     0
 75
     1
 40
0.076637
 41
0.073874
 76
     3
 10
3.38
 20
1.65
 30
0.0
 10
3.199217
 20
1.400844
 30
0.0
 10
3.099217
 20
1.400844
 30
0.0
 77
   256
340
145
1001
ACAD
1000
DSTYLE
1002
{
1070
    42
1040
0.1
1070
    44
1040
0.0625
1070
   271
1070
     3
1070
    41
1040
0.1
1002
}
  0
LINE
  5
147
100
AcDbEntity
  8
DIMS
100
AcDbLine
 10
3.31
 20
1.65
 30
0.0
 11
3.49
 21
1.65
 31
0.0
  0
LINE
  5
148
100
AcDbEntity
  8
DIMS
100
AcDbLine
 10
2.11
 20
2.1
 30
0.0
 11
2.29
 21
2.1
 31
0.0
  0
LEADER
  5
149
100
AcDbEntity
  8
DIMS
100
AcDbLeader
  3
STANDARD
 73
     0
 75
     1
 40
0.075307
 41
0.075205
 76
     3
 10
2.2
 20
2.08
 30
0.0
 10
1.492568
 20
1.457245
 30
0.0
 10
1.392568
 20
1.457245
 30
0.0
 77
   256
340
41
1001
ACAD
1000
DSTYLE
1002
{
1070
    42
1040
0.1
1070
    44
1040
0.0625
1070
   271
1070
     3
1070
    41
1040
0.1
1002
}
  0
CIRCLE
  5
14A
100
AcDbEntity
  8
0
100
AcDbCircle
 10
1.8
 20
2.0
 30
0.0
 40
0.02
  0
CIRCLE
  5
14B
100
AcDbEntity
  8
0
100
AcDbCircle
 10
1.9
 20
2.0
 30
0.0
 40
0.02
  0
CIRCLE
  5
14C
100
AcDbEntity
  8
0
100
AcDbCircle
 10
2.0
 20
2.0
 30
0.0
 40
0.02
  0
CIRCLE
  5
14D
100
AcDbEntity
  8
0
100
AcDbCircle
 10
2.1
 20
2.0
 30
0.0
 40
0.02
  0
CIRCLE
  5
14E
100
AcDbEntity
  8
0
100
AcDbCircle
 10
2.2
 20
2.0
 30
0.0
 40
0.02
  0
CIRCLE
  5
14F
100
AcDbEntity
  8
0
100
AcDbCircle
 10
2.0
 20
2.1
 30
0.0
 40
0.02
  0
CIRCLE
  5
150
100
AcDbEntity
  8
0
100
AcDbCircle
 10
1.9
 20
2.1
 30
0.0
 40
0.02
  0
CIRCLE
  5
151
100
AcDbEntity
  8
0
100
AcDbCircle
 10
1.8
 20
2.1
 30
0.0
 40
0.02
  0
CIRCLE
  5
152
100
AcDbEntity
  8
0
100
AcDbCircle
 10
2.1
 20
2.1
 30
0.0
 40
0.02
  0
LINE
  5
153
100
AcDbEntity
  8
DIMS
100
AcDbLine
 10
2.2
 20
2.01
 30
0.0
 11
2.2
 21
2.19
 31
0.0
  0
LWPOLYLINE
  5
154
100
AcDbEntity
  8
0
100
AcDbPolyline
 90
        4
 70
     1
 43
0.0
 10
2.18
 20
2.12
 10
2.18
 20
2.08
 10
2.22
 20
2.08
 10
2.22
 20
2.12
  0
CIRCLE
  5
155
100
AcDbEntity
  8
0
100
AcDbCircle
 10
2.2
 20
2.1
 30
0.0
 40
0.02
  0
INSERT
  5
156
100
AcDbEntity
  8
DIMS
100
AcDbBlockReference
  2
A$C3E03409D
 10
2.799144
 20
1.289411
 30
0.0
  0
CIRCLE
  5
157
100
AcDbEntity
  8
0
100
AcDbCircle
 10
2.7
 20
2.1
 30
0.0
 40
0.1
  0
LINE
  5
158
100
AcDbEntity
  8
DIMS
100
AcDbLine
 10
2.61
 20
2.1
 30
0.0
 11
2.79
 21
2.1
 31
0.0
  0
LINE
  5
159
100
AcDbEntity
  8
DIMS
100
AcDbLine
 10
2.7
 20
2.01
 30
0.0
 11
2.7
 21
2.19
 31
0.0
  0
LWPOLYLINE
  5
15A
100
AcDbEntity
  8
0
100
AcDbPolyline
 90
        4
 70
     1
 43
0.0
 10
2.26441
 20
2.52559
 10
2.26441
 20
2.47441
 10
2.31559
 20
2.47441
 10
2.31559
 20
2.52559
  0
CIRCLE
  5
15B
100
AcDbEntity
  8
0
100
AcDbCircle
 10
2.29
 20
2.5
 30
0.0
 40
0.02559
  0
LWPOLYLINE
  5
15C
100
AcDbEntity
  8
0
100
AcDbPolyline
 90
        4
 70
     1
 43
0.0
 10
1.35941
 20
2.52559
 10
1.35941
 20
2.47441
 10
1.41059
 20
2.47441
 10
1.41059
 20
2.52559
  0
CIRCLE
  5
15D
100
AcDbEntity
  8
0
100
AcDbCircle
 10
1.385
 20
2.5
 30
0.0
 40
0.02559
  0
CIRCLE
  5
15E
100
AcDbEntity
  8
0
100
AcDbCircle
 10
1.6996
 20
2.5
 30
0.0
 40
0.02559
  0
CIRCLE
  5
15F
100
AcDbEntity
  8
0
100
AcDbCircle
 10
1.8964
 20
2.5
 30
0.0
 40
0.02559
  0
CIRCLE
  5
160
100
AcDbEntity
  8
0
100
AcDbCircle
 10
2.0932
 20
2.5
 30
0.0
 40
0.02559
  0
CIRCLE
  5
161
100
AcDbEntity
  8
0
100
AcDbCircle
 10
2.8064
 20
2.5
 30
0.0
 40
0.02559
  0
CIRCLE
  5
162
100
AcDbEntity
  8
0
100
AcDbCircle
 10
2.6096
 20
2.5
 30
0.0
 40
0.02559
  0
CIRCLE
  5
163
100
AcDbEntity
  8
0
100
AcDbCircle
 10
3.0032
 20
2.5
 30
0.0
 40
0.02559
  0
LWPOLYLINE
  5
164
100
AcDbEntity
  8
0
100
AcDbPolyline
 90
        4
 70
     1
 43
0.0
 10
3.17441
 20
2.52559
 10
3.17441
 20
2.47441
 10
3.22559
 20
2.47441
 10
3.22559
 20
2.52559
  0
CIRCLE
  5
165
100
AcDbEntity
  8
0
100
AcDbCircle
 10
3.2
 20
2.5
 30
0.0
 40
0.02559
  0
LINE
  5
166
100
AcDbEntity
  8
DIMS
100
AcDbLine
 10
3.4
 20
1.56
 30
0.0
 11
3.4
 21
1.74
 31
0.0
  0
CIRCLE
  5
167
100
AcDbEntity
  8
0
100
AcDbCircle
 10
3.4
 20
0.95
 30
0.0
 40
0.02
  0
CIRCLE
  5
168
100
AcDbEntity
  8
0
100
AcDbCircle
 10
3.5
 20
0.95
 30
0.0
 40
0.02
  0
CIRCLE
  5
169
100
AcDbEntity
  8
0
100
AcDbCircle
 10
3.4
 20
1.05
 30
0.0
 40
0.02
  0
CIRCLE
  5
16A
100
AcDbEntity
  8
0
100
AcDbCircle
 10
3.4
 20
1.15
 30
0.0
 40
0.02
  0
CIRCLE
  5
16B
100
AcDbEntity
  8
0
100
AcDbCircle
 10
3.5
 20
1.05
 30
0.0
 40
0.02
  0
CIRCLE
  5
16C
100
AcDbEntity
  8
0
100
AcDbCircle
 10
3.5
 20
1.15
 30
0.0
 40
0.02
  0
CIRCLE
  5
16D
100
AcDbEntity
  8
0
100
AcDbCircle
 10
3.4
 20
1.25
 30
0.0
 40
0.02
  0
CIRCLE
  5
16E
100
AcDbEntity
  8
0
100
AcDbCircle
 10
3.4
 20
1.35
 30
0.0
 40
0.02
  0
CIRCLE
  5
16F
100
AcDbEntity
  8
0
100
AcDbCircle
 10
3.5
 20
1.25
 30
0.0
 40
0.02
  0
CIRCLE
  5
170
100
AcDbEntity
  8
0
100
AcDbCircle
 10
3.5
 20
1.35
 30
0.0
 40
0.02
  0
CIRCLE
  5
171
100
AcDbEntity
  8
0
100
AcDbCircle
 10
3.4
 20
1.45
 30
0.0
 40
0.02
  0
CIRCLE
  5
172
100
AcDbEntity
  8
0
100
AcDbCircle
 10
3.4
 20
1.55
 30
0.0
 40
0.02
  0
CIRCLE
  5
173
100
AcDbEntity
  8
0
100
AcDbCircle
 10
3.5
 20
1.45
 30
0.0
 40
0.02
  0
CIRCLE
  5
174
100
AcDbEntity
  8
0
100
AcDbCircle
 10
3.5
 20
1.55
 30
0.0
 40
0.02
  0
LWPOLYLINE
  5
175
100
AcDbEntity
  8
0
100
AcDbPolyline
 90
        4
 70
     1
 43
0.0
 10
3.38
 20
1.67
 10
3.38
 20
1.63
 10
3.42
 20
1.63
 10
3.42
 20
1.67
  0
CIRCLE
  5
176
100
AcDbEntity
  8
0
100
AcDbCircle
 10
3.4
 20
1.65
 30
0.0
 40
0.02
  0
CIRCLE
  5
177
100
AcDbEntity
  8
0
100
AcDbCircle
 10
3.5
 20
1.65
 30
0.0
 40
0.02
  0
LINE
  5
178
100
AcDbEntity
  8
0
100
AcDbLine
 10
3.6
 20
3.738463
 30
0.0
 11
3.6
 21
3.803463
 31
0.0
  0
ENDSEC
  0
SECTION
  2
OBJECTS
  0
DICTIONARY
  5
1A
100
AcDbDictionary
  3
ACAD_GROUP
350
18
  3
ACAD_MLINESTYLE
350
19
  0
DICTIONARY
  5
18
102
{ACAD_REACTORS
330
1A
102
}
100
AcDbDictionary
  0
DICTIONARY
  5
19
102
{ACAD_REACTORS
330
1A
102
}
100
AcDbDictionary
  3
STANDARD
350
1C
  0
MLINESTYLE
  5
1C
102
{ACAD_REACTORS
330
19
102
}
100
AcDbMlineStyle
  2
STANDARD
 70
     0
  3

 62
   256
 51
90.0
 52
90.0
 71
     2
 49
0.5
 62
   256
  6
BYLAYER
 49
-0.5
 62
   256
  6
BYLAYER
  0
ENDSEC
  0
EOF
